<svg width="853" height="583" viewBox="0 0 853 583" fill="none" xmlns="http://www.w3.org/2000/svg">
<path d="M736 271H89V293H736V271Z" fill="#090909" stroke="#F2F2F2" stroke-width="2"/>
<path d="M264.955 145L258.846 151.696C243.21 168.833 220.1 193.836 205.518 217.568C198.205 229.469 193.318 240.617 192.346 250.008C191.866 254.643 192.354 258.709 193.852 262.208C195.327 265.658 197.886 268.797 201.948 271.481C229.247 287.267 255.949 308.926 265.408 336.194C270.199 350.004 270.511 365.106 264.43 381.264C258.381 397.335 246.085 414.254 225.998 431.998L224.863 433H123.378L135.111 425.614C159.516 410.254 171.763 396.249 176.535 383.913C181.21 371.83 178.947 360.718 172.707 350.305C166.379 339.744 156.061 330.113 145.092 321.528C139.636 317.259 134.092 313.302 128.891 309.651C123.727 306.027 118.826 302.654 114.818 299.65L114.759 299.605L114.7 299.559C104.367 291.195 101.68 279.078 103.558 265.934C105.417 252.912 111.785 238.338 120.274 223.85C137.29 194.811 163.591 164.857 183.026 146.12L184.188 145H264.955Z" fill="url(#paint0_linear_26_336)" stroke="black" stroke-width="8"/>
<path d="M465.614 145V433.5H433.114C406.762 433.5 388.458 428.864 377.146 421.51C365.603 414.006 361.227 403.492 363.79 392.932C366.254 382.781 374.889 373.644 386.981 367.692C398.166 362.188 412.647 359.212 429.114 360.562V184.5H317.114V432.044L314.811 433.122C313.956 433.522 313.063 433.614 312.63 433.653C312.064 433.704 311.414 433.722 310.729 433.726C309.359 433.733 307.461 433.684 305.07 433.628C300.237 433.514 293.004 433.357 282.669 433.5L282.595 433.501L282.52 433.499C261.682 433.008 245.431 428.502 234.183 421.756C222.985 415.04 216.328 405.788 216.012 395.892C215.692 385.873 221.906 376.733 233.128 370.455C243.616 364.588 258.806 360.961 278.612 360.952C278.612 360.319 278.612 359.615 278.612 358.845C278.611 354.873 278.61 349.115 278.608 341.967C278.605 327.67 278.602 307.813 278.6 285.575C278.595 241.1 278.595 187.099 278.614 148.998L278.616 145H465.614Z" fill="black" stroke="#6B6B6B" stroke-width="8"/>
<path d="M615.219 182.774C613.219 189.274 612.719 194.774 609.219 201.774C602.719 211.274 598.703 213.774 590.219 213.774C581.736 213.774 575.239 209.787 570.719 201.774C567.883 196.747 565.219 189.376 565.219 182.774C565.219 165.654 576.412 151.774 590.219 151.774C604.026 151.774 615.219 165.654 615.219 182.774Z" fill="#FFEAC4"/>
<path d="M473.719 253.775C523.719 176.774 544.719 96.7745 577.219 145.274C576.446 145.274 568.347 150.446 564.219 165.275C551.719 165.275 524.191 353.054 533.219 386.944C516.219 368.275 516.219 326.775 516.219 310.775C510.219 331.275 507.219 344.444 511.719 386.944C499.219 375.275 499.219 326.775 499.219 308.275C491.719 313.775 490.719 347.775 495.219 375.275C484.219 364.775 475.219 332.275 481.719 295.775C458.519 312.575 465.886 340.108 473.219 353.275C456.719 345.775 433.719 315.375 473.719 253.775Z" fill="#52CEB1" stroke="#00553D"/>
<path d="M706.719 254.048C656.719 177.048 635.719 97.0476 603.219 145.548C603.993 145.548 612.092 150.719 616.219 165.548C628.719 165.548 656.247 353.327 647.219 387.217C664.219 368.548 664.219 327.048 664.219 311.048C670.219 331.548 673.219 344.717 668.719 387.217C681.219 375.548 681.219 327.048 681.219 308.548C688.719 314.048 689.719 348.048 685.219 375.548C696.219 365.048 705.219 332.548 698.719 296.048C721.919 312.848 714.553 340.381 707.219 353.548C723.719 346.048 746.719 315.648 706.719 254.048Z" fill="#52CEB1" stroke="#00553D"/>
<path d="M462.36 179.222L495.807 145.774L547.61 215.305L532.885 231.432L462.36 179.222Z" fill="#FFEBC5"/>
<path d="M539.351 231.432C544.307 231.432 548.324 227.415 548.324 222.459C548.324 217.503 544.307 213.485 539.351 213.485C534.395 213.485 530.377 217.503 530.377 222.459C530.377 227.415 534.395 231.432 539.351 231.432Z" fill="#FFEBC5"/>
<path d="M721.079 179.222L687.631 145.774L635.829 215.305L650.553 231.432L721.079 179.222Z" fill="#FFEBC5"/>
<path d="M644.087 231.432C639.131 231.432 635.114 227.415 635.114 222.459C635.114 217.503 639.131 213.485 644.087 213.485C649.043 213.485 653.061 217.503 653.061 222.459C653.061 227.415 649.043 231.432 644.087 231.432Z" fill="#FFEBC5"/>
<path d="M556.86 321L578 328.522L566.055 440.245L517.219 438.231L556.86 321Z" fill="#636363"/>
<path d="M554.885 339.27C559.725 339.27 563.649 334.509 563.649 328.635C563.649 322.762 559.725 318 554.885 318C550.044 318 546.12 322.762 546.12 328.635C546.12 334.509 550.044 339.27 554.885 339.27Z" fill="#636363"/>
<path d="M562 435.775C560.735 441.524 556.766 440.41 534.119 440.41C519.195 440.41 510.28 441.524 511.046 427.77C512.761 417.238 519.195 410.497 534.119 410.497C549.044 410.497 562 427.399 562 435.775Z" fill="#3C3C3C"/>
<path d="M623.596 321L600 328.522L613.333 440.245L667.844 438.231L623.596 321Z" fill="#636363"/>
<path d="M622.897 339.27C628.299 339.27 632.679 334.509 632.679 328.635C632.679 322.762 628.299 318 622.897 318C617.494 318 613.114 322.762 613.114 328.635C613.114 334.509 617.494 339.27 622.897 339.27Z" fill="#636363"/>
<path d="M552 309.5H627L642.5 331L629.5 343L620 348L600.5 350H576.5L559 347L544 342L534 331L552 309.5Z" fill="#353535"/>
<path d="M538 326.5L541.5 331.5L543.5 341.5L534 331L538 326.5Z" fill="#2CC8AE"/>
<path d="M538 326.5L541.5 331.5L543.5 341.5L534 331L538 326.5Z" fill="#2CC8AE"/>
<path d="M538 326.5L541.5 331.5L543.5 341.5L534 331L538 326.5Z" fill="#2CC8AE"/>
<path d="M542 331.5L557 339.5L558.5 346.5L544 342L542 331.5Z" fill="#2CC8AE"/>
<path d="M542 331.5L557 339.5L558.5 346.5L544 342L542 331.5Z" fill="#2CC8AE"/>
<path d="M542 331.5L557 339.5L558.5 346.5L544 342L542 331.5Z" fill="#2CC8AE"/>
<path d="M557.5 339.5L574 343.5L576 350L559 347L557.5 339.5Z" fill="#2CC8AE"/>
<path d="M557.5 339.5L574 343.5L576 350L559 347L557.5 339.5Z" fill="#2CC8AE"/>
<path d="M557.5 339.5L574 343.5L576 350L559 347L557.5 339.5Z" fill="#2CC8AE"/>
<path d="M574.5 343.5L599.5 344L600.334 350H576.5L574.5 343.5Z" fill="#2CC8AE"/>
<path d="M574.5 343.5L599.5 344L600.334 350H576.5L574.5 343.5Z" fill="#2CC8AE"/>
<path d="M574.5 343.5L599.5 344L600.334 350H576.5L574.5 343.5Z" fill="#2CC8AE"/>
<path d="M600 344L617.5 341L620 348L600.5 350L600 344Z" fill="#2CC8AE"/>
<path d="M600 344L617.5 341L620 348L600.5 350L600 344Z" fill="#2CC8AE"/>
<path d="M600 344L617.5 341L620 348L600.5 350L600 344Z" fill="#2CC8AE"/>
<path d="M617.5 341L626 338.5L629.5 343L620 348L617.5 341Z" fill="#2CC8AE"/>
<path d="M617.5 341L626 338.5L629.5 343L620 348L617.5 341Z" fill="#2CC8AE"/>
<path d="M617.5 341L626 338.5L629.5 343L620 348L617.5 341Z" fill="#2CC8AE"/>
<path d="M626.5 338.5L638.5 325.5L642.5 331L630 342.5L626.5 338.5Z" fill="#2CC8AE"/>
<path d="M626.5 338.5L638.5 325.5L642.5 331L630 342.5L626.5 338.5Z" fill="#2CC8AE"/>
<path d="M626.5 338.5L638.5 325.5L642.5 331L630 342.5L626.5 338.5Z" fill="#2CC8AE"/>
<path d="M564.219 218.774L580.719 223.021H596.219L612.719 218.774L627.219 310.275H552.219L564.219 218.774Z" fill="#555555"/>
<path d="M564.219 219.161L580.719 223.39H596.219L612.719 219.161L627.219 310.275L603.5 321L590.219 292.515L573 321L552.219 310.275L564.219 219.161Z" fill="#DEDEDE"/>
<path d="M620 435.775C621.265 441.524 625.234 440.41 647.881 440.41C662.805 440.41 671.72 441.524 670.954 427.77C669.239 417.238 662.805 410.497 647.881 410.497C632.956 410.497 620 427.399 620 435.775Z" fill="#3C3C3C"/>
<path d="M554.719 160.275C559.846 161.515 561.219 154.275 571.219 147.275C581.219 140.275 602.219 142.275 605.719 147.775C611.719 153.275 621.053 177.275 614.219 185.275C616.619 178.475 603.719 166.941 597.219 163.275C594.219 167.275 589.719 177.875 591.719 184.275C584.719 184.275 580.219 171.275 582.719 163.275C575.719 164.275 565.719 177.441 561.219 186.275C556.94 182.423 564.016 168.68 567.711 164.174C564.653 167.62 561.507 174.627 559.219 180.775C557.776 177.248 556.611 168.662 562.933 161.605C561.317 162.907 558.018 163.903 554.719 160.275Z" fill="#52CEB1"/>
<path d="M571.219 147.275C561.219 154.275 559.846 161.515 554.719 160.275C558.719 164.675 562.719 162.275 563.719 160.775C556.519 167.975 557.719 177.108 559.219 180.775C561.886 173.608 565.719 165.275 569.219 162.775C566.719 163.775 556.219 181.775 561.219 186.275C565.719 177.441 575.719 164.275 582.719 163.275C580.219 171.275 584.719 184.275 591.719 184.275C589.719 177.875 594.219 167.275 597.219 163.275C603.719 166.941 616.619 178.475 614.219 185.275C621.053 177.275 611.719 153.275 605.719 147.775C602.219 142.275 581.219 140.275 571.219 147.275Z" stroke="#006954"/>
<path d="M687.633 145.774L721.219 179.275L664.719 220.775L645.719 202.275L687.633 145.774Z" fill="#272727"/>
<path d="M495.805 145.849L462.219 179.349L518.719 220.849L537.719 202.349L495.805 145.849Z" fill="#272727"/>
<path d="M586.219 223.274H590.219L594.219 266.775L591.719 270.275L588.719 274.775L586.219 271.275L583.219 267.275L586.219 223.274Z" fill="#00CC7A"/>
<path d="M579.89 223.861L586.102 223.384L584.834 231.891L579.89 223.861Z" fill="#F5F5F5" stroke="#07D896" stroke-width="0.2"/>
<path d="M590.34 223.386L596.055 223.861L591.702 231.493L590.34 223.386Z" fill="#F5F5F5" stroke="#07D896" stroke-width="0.2"/>
<path d="M720.81 394.948C721.033 401.181 716.036 406.352 709.799 406.342L692.65 406.315C686.409 406.305 681.427 401.11 681.676 394.875L691.367 152.762C691.59 147.185 696.181 142.782 701.762 142.791C707.347 142.8 711.925 147.224 712.125 152.805L720.81 394.948Z" fill="#5C5C5C"/>
<path d="M711.45 421.992L708.29 429.088H694.793L691.475 421.992L682.219 398.25H720.219L711.45 421.992Z" fill="#5C5C5C"/>
<path d="M701.719 436.775C702.547 436.775 703.219 433.824 703.219 430.185C703.219 426.546 702.547 423.595 701.719 423.595C700.891 423.595 700.219 426.546 700.219 430.185C700.219 433.824 700.891 436.775 701.719 436.775Z" fill="#5C5C5C"/>
<path d="M694.656 429.55C694.455 429.142 694.752 428.664 695.206 428.664H707.641C708.148 428.664 708.486 429.186 708.28 429.649C708.24 429.739 708.219 429.836 708.219 429.934V429.944C708.219 430.357 707.885 430.692 707.472 430.692H695.541C695.087 430.692 694.719 430.324 694.719 429.87V429.821C694.719 429.727 694.698 429.634 694.656 429.55Z" fill="#5C5C5C"/>
<path d="M460.219 166.774H486.219V417.748L479.719 430.761L473.219 443.775L467.183 431.691L460.219 417.748V166.774Z" fill="#FFBF33"/>
<path d="M473.219 443.775L462.484 422.247L464.72 417.775L467.149 423.097L470.22 417.775L472.493 423.06L475.22 417.775L477.493 423.051L480.361 418.04L483.043 423.101L485.72 417.775H486.196L473.219 443.775Z" fill="#EDDAB1"/>
<path d="M460.219 150.774C460.219 145.252 464.696 140.774 470.219 140.774H476.219C481.742 140.774 486.219 145.252 486.219 150.774V167.774H460.219V150.774Z" fill="#FF8080"/>
<path d="M486.219 164.774H460.219V170.774H486.219V164.774Z" fill="#252525"/>
<path d="M473.219 443.775L476.219 437.775H470.219L473.219 443.775Z" fill="#060606"/>
<defs>
<linearGradient id="paint0_linear_26_336" x1="186" y1="149" x2="186" y2="429" gradientUnits="userSpaceOnUse">
<stop stop-color="#7BFFE0"/>
<stop offset="1" stop-color="#FF8BD8"/>
</linearGradient>
</defs>
</svg>
